# File created by Blade
# Date/Time:  Tue Apr 07 20:17:56 2015
# Frame Rate: 120.000 fps
#------------------------------------------------------
:FULLY-SPECIFIED
:DEGREES
1675
root 3.238875 32.800456 -8.169352 13.152920 -0.937732 -0.415159
Spine -14.376784 -2.788667 -0.547643
Head 17.740069 0.811717 0.559832
LeftShoulder -23.860958 38.990553 21.562620
LeftArm 46.880105 -62.455155 -50.534634
LeftForeArm 12.385478 -0.000000 -2.212407
LeftHand 5.386707 -0.000000 4.261399
LeftHandThumb1 -26.253704 0.000000 33.147579
RightShoulder -10.399228 6.978983 -35.717023
RightArm 8.212107 16.626372 32.991254
RightForeArm -15.077963 -0.000000 0.631633
RightHand 1.305390 -0.000000 1.036859
RightHandThumb1 -24.326973 -0.000000 -32.862282
LeftUpLeg -6.466179 -8.664716 1.128655
LeftLeg -2.965465 -0.000000 0.000000
LeftFoot -7.463318 11.130568 -14.741889
LeftToeBase -10.504400 -0.000000 0.000000
RightUpLeg -8.615637 0.114574 1.950284
RightLeg -2.726117 -0.000000 0.000000
RightFoot -7.846608 -7.710068 6.611663
RightToeBase 7.047859 -0.000000 -0.000000
1676
root 3.261058 32.799820 -8.155932 13.128161 -0.820279 -0.417170
Spine -14.399872 -2.910879 -0.493293
Head 17.688565 0.849238 0.536476
LeftShoulder -23.852990 38.855901 21.645501
LeftArm 46.520123 -62.592624 -50.144897
LeftForeArm 12.411945 -0.000000 -2.194948
LeftHand 5.247504 -0.000000 4.388153
LeftHandThumb1 -26.253704 0.000000 33.147579
RightShoulder -10.476406 7.034902 -35.839755
RightArm 8.152342 16.798407 32.645857
RightForeArm -15.186418 -0.000000 0.699986
RightHand 1.166439 -0.000000 1.200050
RightHandThumb1 -24.326973 -0.000000 -32.862282
LeftUpLeg -6.450282 -8.569682 1.114688
LeftLeg -2.931275 -0.000000 0.000000
LeftFoot -7.424861 10.752099 -14.907507
LeftToeBase -10.449676 -0.000000 0.000000
RightUpLeg -8.571037 0.121759 1.925386
RightLeg -2.710858 -0.000000 0.000000
RightFoot -7.890593 -7.899418 6.570433
RightToeBase 7.147500 -0.000000 -0.000000
1677
root 3.276802 32.797995 -8.143130 13.107586 -0.680132 -0.471773
Spine -14.423668 -3.038077 -0.390362
Head 17.626913 0.870268 0.503919
LeftShoulder -23.864740 38.750718 21.705700
LeftArm 46.354084 -62.834096 -49.940095
LeftForeArm 12.485075 -0.000000 -2.137336
LeftHand 5.194350 0.000000 4.475199
LeftHandThumb1 -26.253704 0.000000 33.147579
RightShoulder -10.556390 7.137908 -35.934164
RightArm 8.064592 16.809358 32.228799
RightForeArm -15.228511 -0.000000 0.803263
RightHand 0.896069 -0.000000 1.360008
RightHandThumb1 -24.326973 -0.000000 -32.862282
LeftUpLeg -6.424917 -8.458145 1.140940
LeftLeg -2.925611 -0.000000 0.000000
LeftFoot -7.408666 10.508522 -14.940981
LeftToeBase -10.334948 -0.000000 0.000000
RightUpLeg -8.524113 0.142071 1.965880
RightLeg -2.708398 -0.000000 0.000000
RightFoot -7.914952 -8.118492 6.514534
RightToeBase 7.125114 -0.000000 -0.000000
1678
root 3.290767 32.795663 -8.130658 13.109440 -0.533380 -0.552935
Spine -14.475815 -3.150851 -0.268220
Head 17.562529 0.875821 0.503951
LeftShoulder -23.886966 38.679698 21.794685
LeftArm 46.266608 -63.059710 -49.843794
LeftForeArm 12.661305 0.000000 -2.003065
LeftHand 5.104706 -0.000000 4.599085
LeftHandThumb1 -26.253704 0.000000 33.147579
RightShoulder -10.643557 7.250021 -36.025500
RightArm 7.963093 16.769099 31.783662
RightForeArm -15.242404 -0.000000 0.899899
RightHand 0.617198 0.000000 1.631920
RightHandThumb1 -24.326973 -0.000000 -32.862282
LeftUpLeg -6.434957 -8.403615 1.192238
LeftLeg -2.897807 -0.000000 0.000000
LeftFoot -7.432737 10.420493 -14.907406
LeftToeBase -10.178651 -0.000000 0.000000
RightUpLeg -8.506909 0.125846 2.046887
RightLeg -2.690880 -0.000000 0.000000
RightFoot -7.949002 -8.330803 6.404377
RightToeBase 7.218635 -0.000000 -0.000000
1679
root 3.307904 32.793754 -8.116180 13.112945 -0.389555 -0.598846
Spine -14.531111 -3.263107 -0.180744
Head 17.480983 0.864732 0.496358
LeftShoulder -23.939811 38.605333 21.818155
LeftArm 46.128018 -63.229242 -49.556206
LeftForeArm 12.644485 0.000000 -1.944113
LeftHand 5.063738 -0.000000 4.728898
LeftHandThumb1 -26.253704 0.000000 33.147579
RightShoulder -10.722226 7.302195 -36.089472
RightArm 7.886973 16.907248 31.353943
RightForeArm -15.370557 -0.000000 1.016151
RightHand 0.186793 0.000000 1.927459
RightHandThumb1 -24.326973 -0.000000 -32.862282
LeftUpLeg -6.449729 -8.417132 1.230430
LeftLeg -2.862658 -0.000000 0.000000
LeftFoot -7.449442 10.290248 -14.990491
LeftToeBase -10.062225 -0.000000 0.000000
RightUpLeg -8.491677 0.083287 2.093855
RightLeg -2.667696 -0.000000 0.000000
RightFoot -7.993562 -8.528777 6.321152
RightToeBase 7.296335 -0.000000 -0.000000
1680
root 3.324978 32.792166 -8.100576 13.119187 -0.244969 -0.648467
Spine -14.596310 -3.353561 -0.098085
Head 17.418000 0.829929 0.491244
LeftShoulder -23.876490 38.396524 21.981874
LeftArm 45.639472 -63.282638 -49.019947
LeftForeArm 12.679285 -0.000000 -1.797381
LeftHand 5.019456 -0.000000 5.027269
LeftHandThumb1 -26.253704 0.000000 33.147579
RightShoulder -10.800770 7.383118 -36.145347
RightArm 7.751945 16.928145 30.881270
RightForeArm -15.277556 -0.000000 1.148446
RightHand -0.155788 -0.000000 2.187473
RightHandThumb1 -24.326973 -0.000000 -32.862282
LeftUpLeg -6.456335 -8.364003 1.257254
LeftLeg -2.847832 -0.000000 0.000000
LeftFoot -7.493109 10.101333 -15.152405
LeftToeBase -9.532642 -0.000000 0.000000
RightUpLeg -8.463763 0.073638 2.140295
RightLeg -2.668454 -0.000000 0.000000
RightFoot -8.031758 -8.782963 6.214048
RightToeBase 7.335509 -0.000000 -0.000000
1681
root 3.340492 32.789872 -8.084008 13.113807 -0.112611 -0.704115
Spine -14.647644 -3.411482 -0.024974
Head 17.357559 0.759206 0.495932
LeftShoulder -23.873401 38.262278 22.091741
LeftArm 45.391999 -63.325891 -48.648469
LeftForeArm 12.583931 -0.000000 -1.657963
LeftHand 4.953853 -0.000000 4.988154
LeftHandThumb1 -26.253704 0.000000 33.147579
RightShoulder -10.913901 7.416154 -36.211106
RightArm 7.651169 16.998820 30.485104
RightForeArm -15.182578 -0.000000 1.299472
RightHand -0.184516 -0.000000 1.980040
RightHandThumb1 -24.326973 -0.000000 -32.862282
LeftUpLeg -6.444163 -8.253824 1.274226
LeftLeg -2.839775 -0.000000 0.000000
LeftFoot -7.468154 9.952016 -15.112683
LeftToeBase -9.605294 -0.000000 0.000000
RightUpLeg -8.421655 0.029175 2.200700
RightLeg -2.666860 -0.000000 0.000000
RightFoot -8.073414 -8.988707 6.134649
RightToeBase 7.351813 -0.000000 -0.000000
1682
root 3.355790 32.788005 -8.065461 13.107224 0.025459 -0.765422
Spine -14.705356 -3.477258 0.054727
Head 17.312883 0.696395 0.517392
LeftShoulder -23.903173 38.185009 22.178219
LeftArm 45.352910 -63.404316 -48.503078
LeftForeArm 12.466175 -0.000000 -1.486913
LeftHand 5.000817 0.000000 5.288941
LeftHandThumb1 -26.253704 0.000000 33.147579
RightShoulder -11.011399 7.482280 -36.233745
RightArm 7.552157 17.096339 30.067464
RightForeArm -15.268770 -0.000000 1.412993
RightHand -0.292301 -0.000000 1.858626
RightHandThumb1 -24.326973 -0.000000 -32.862282
LeftUpLeg -6.412184 -8.150799 1.295559
LeftLeg -2.856488 -0.000000 0.000000
LeftFoot -7.449638 9.813526 -15.102882
LeftToeBase -9.581212 -0.000000 0.000000
RightUpLeg -8.379917 -0.102280 2.280404
RightLeg -2.654912 -0.000000 0.000000
RightFoot -8.130359 -9.116044 6.075641
RightToeBase 7.440743 -0.000000 -0.000000
